<?xml version="1.0" encoding="utf-8"?>
<!-- Generator: Adobe Illustrator 16.0.0, SVG Export Plug-In . SVG Version: 6.00 Build 0)  -->
<!DOCTYPE svg PUBLIC "-//W3C//DTD SVG 1.1//EN" "http://www.w3.org/Graphics/SVG/1.1/DTD/svg11.dtd">
<svg version="1.1" id="Layer_1" xmlns="http://www.w3.org/2000/svg" xmlns:xlink="http://www.w3.org/1999/xlink" x="0px" y="0px"
	 width="256px" height="256px" viewBox="0 0 256 256" enable-background="new 0 0 256 256" xml:space="preserve">
<g>
	<path fill="#A31E22" d="M73.268,243.897c16.794,8.063,35.601,12.609,55.478,12.609c70.67,0,127.999-57.331,127.999-128.017
		c0-70.682-57.329-127.983-127.999-127.983c-70.693,0-128,57.302-128,127.983c0,47.552,25.92,89.022,64.408,111.064"/>
	<path fill="#FFFFFF" d="M186.276,201.951L167.237,50.624c-0.451-3.594-3.523-6.506-6.858-6.506h-24.021c0,0.011,0,0.021,0,0.031
		l0.633,30.762c0.019,0.89-0.714,1.613-1.635,1.613h-12.762c-0.92,0-1.646-0.723-1.619-1.613l0.926-30.762
		c0.001-0.01,0.001-0.02,0.002-0.031H98.358c-3.334,0-6.429,2.913-6.909,6.506L71.22,201.951c-0.48,3.595,3.391,6.508,8.647,6.508
		h37.172c-0.047-0.133-0.075-0.271-0.07-0.417l0.968-32.155c0.026-0.89,1.023-1.61,2.227-1.61h16.685
		c1.204,0,2.194,0.721,2.214,1.61l0.659,32.155c0.006,0.146-0.022,0.285-0.073,0.417h37.929
		C182.833,208.459,186.729,205.546,186.276,201.951z M120.571,88.319c0.026-0.891,0.819-1.613,1.769-1.613h13.174
		c0.947,0,1.732,0.722,1.752,1.613l0.632,30.76c0.018,0.891-0.816,1.614-1.865,1.614h-14.535c-1.05,0-1.877-0.723-1.851-1.614
		L120.571,88.319z M136.702,164.478h-16.293c-1.175,0-2.106-0.722-2.081-1.612l0.926-30.763c0.027-0.889,0.922-1.611,1.999-1.611
		h14.928c1.077,0,1.967,0.723,1.983,1.611l0.634,30.763C138.815,163.756,137.876,164.478,136.702,164.478z"/>
</g>
</svg>
