<?xml version="1.0" encoding="utf-8"?>
<!-- Generator: Adobe Illustrator 16.0.0, SVG Export Plug-In . SVG Version: 6.00 Build 0)  -->
<!DOCTYPE svg PUBLIC "-//W3C//DTD SVG 1.1//EN" "http://www.w3.org/Graphics/SVG/1.1/DTD/svg11.dtd">
<svg version="1.1" id="Layer_1" xmlns="http://www.w3.org/2000/svg" xmlns:xlink="http://www.w3.org/1999/xlink" x="0px" y="0px"
	 width="256px" height="256px" viewBox="0 0 256 256" enable-background="new 0 0 256 256" xml:space="preserve">
<g>
	<path fill="#5B3995" d="M72.522,243.39c16.794,8.063,35.601,12.61,55.477,12.61C198.669,256,256,198.67,256,127.982
		C256,57.301,198.669,0,127.999,0C57.308,0,0,57.301,0,127.982c0,47.554,25.92,89.023,64.407,111.063"/>
	<g>
		<path fill="#FFFFFF" d="M166.623,80.672V68.604c0-1.621-1.313-2.934-2.934-2.934h-4.583c-1.619,0-2.933,1.313-2.933,2.934v3.647
			c0,0.95-0.771,1.719-1.717,1.719h-2.779c-0.948,0-1.717-0.769-1.717-1.719v-3.647c0-1.621-1.315-2.934-2.935-2.934h-4.594
			c-1.62,0-2.935,1.313-2.935,2.934v3.647c0,0.95-0.769,1.719-1.716,1.719h-2.803c-0.939,0-1.705-0.755-1.717-1.694l-0.051-3.712
			c-0.023-1.604-1.329-2.894-2.934-2.894h-4.623c-1.619,0-2.935,1.313-2.935,2.934v3.647c0,0.95-0.767,1.719-1.716,1.719h-2.779
			c-0.948,0-1.717-0.769-1.717-1.719v-3.647c0-1.621-1.315-2.934-2.935-2.934h-4.594c-1.619,0-2.933,1.313-2.933,2.934v3.647
			c0,0.95-0.769,1.719-1.719,1.719h-2.778c-0.949,0-1.717-0.769-1.717-1.719v-3.647c0-1.621-1.315-2.934-2.935-2.934h-4.588
			c-1.62,0-2.934,1.313-2.934,2.934v12.068l6.161,8.229h0.036v91.578h64.85V88.9h0.038L166.623,80.672z M136.088,123.104h-16.186
			v-13.596c0-4.468,3.621-8.09,8.091-8.09c4.474,0,8.095,3.622,8.095,8.092V123.104z M136.088,123.104"/>
		<path fill="#FFFFFF" d="M210.423,107.631c0-0.783-0.314-1.532-0.872-2.081c-0.556-0.551-1.31-0.855-2.092-0.848l-4.588,0.049
			c-1.607,0.017-2.902,1.325-2.902,2.933v3.571c0,0.95-0.769,1.716-1.719,1.716h-2.783c-0.95,0-1.719-0.769-1.719-1.716v-3.649
			c0-1.619-1.313-2.933-2.934-2.933h-4.587c-1.62,0-2.934,1.313-2.934,2.933v3.649c0,0.95-0.77,1.716-1.717,1.716h-2.775
			c-0.948,0-1.718-0.769-1.718-1.716v-3.649c0-1.619-1.313-2.933-2.935-2.933h-4.591c-1.621,0-2.936,1.313-2.936,2.933v72.872h43.94
			L210.423,107.631z M210.423,107.631"/>
		<path fill="#FFFFFF" d="M89.238,107.601c-0.004-1.617-1.317-2.93-2.936-2.93h-4.519c-1.604,0-2.913,1.291-2.935,2.896l-0.05,3.712
			c-0.013,0.939-0.777,1.692-1.718,1.692h-2.798c-0.947,0-1.717-0.769-1.717-1.716v-3.649c0-1.619-1.313-2.933-2.935-2.933h-4.587
			c-1.621,0-2.934,1.313-2.934,2.933v3.649c0,0.95-0.77,1.716-1.717,1.716h-2.786c-0.947,0-1.717-0.766-1.717-1.716v-3.649
			c0-1.619-1.313-2.933-2.934-2.933h-4.588c-1.62,0-2.935,1.313-2.935,2.933v72.873h43.939L89.238,107.601z M89.238,107.601"/>
	</g>
</g>
</svg>
